<?xml version="1.0" encoding="utf-8"?>
<!-- Generator: Adobe Illustrator 27.5.0, SVG Export Plug-In . SVG Version: 6.00 Build 0)  -->
<svg version="1.1" xmlns="http://www.w3.org/2000/svg" xmlns:xlink="http://www.w3.org/1999/xlink" x="0px" y="0px"
	 viewBox="0 0 500 500" style="enable-background:new 0 0 500 500;" xml:space="preserve">
<g id="BACKGROUND">
	<rect style="fill:#FFFFFF;" width="500" height="500"/>
</g>
<g id="OBJECTS">
	<g>
		<g>
			<g>
				
					<rect x="398.045" y="71.833" transform="matrix(0.8061 -0.5918 0.5918 0.8061 34.5569 252.9677)" style="fill:#FFA7A6;" width="10.525" height="3.833"/>
				
					<rect x="428.317" y="253.368" transform="matrix(0.1569 -0.9876 0.9876 0.1569 107.3082 642.9606)" style="fill:#FFDAA6;" width="3.833" height="10.525"/>
				
					<rect x="444.868" y="321.422" transform="matrix(0.8952 -0.4456 0.4456 0.8952 -96.925 234.4825)" style="fill:#8CC7FF;" width="10.525" height="3.833"/>
				
					<rect x="375.822" y="120.822" transform="matrix(0.2774 -0.9607 0.9607 0.2774 151.8074 454.0155)" style="fill:#FFDAA6;" width="3.833" height="10.525"/>
				
					<rect x="422.819" y="182.041" transform="matrix(0.9999 -0.0122 0.0122 0.9999 -2.2551 5.1994)" style="fill:#8CC7FF;" width="3.833" height="10.525"/>
				
					<rect x="465.879" y="130.695" transform="matrix(0.4327 -0.9016 0.9016 0.4327 142.8237 498.8768)" style="fill:#9C5DA3;" width="3.833" height="10.525"/>
				
					<rect x="343.511" y="47.861" transform="matrix(0.9999 -0.0122 0.0122 0.9999 -0.6224 4.2181)" style="fill:#8CC7FF;" width="3.833" height="10.525"/>
				
					<rect x="370.496" y="287.33" transform="matrix(0.5738 -0.819 0.819 0.5738 -76.7511 430.9979)" style="fill:#9C5DA3;" width="10.525" height="3.833"/>
			</g>
			<g>
				
					<rect x="94.775" y="68.487" transform="matrix(0.5918 -0.8061 0.8061 0.5918 -19.978 108.0503)" style="fill:#FFA7A6;" width="3.833" height="10.525"/>
				
					<rect x="49.005" y="236.318" transform="matrix(0.9876 -0.1569 0.1569 0.9876 -36.7038 11.4641)" style="fill:#FFDAA6;" width="10.525" height="3.833"/>
				
					<rect x="47.953" y="318.076" transform="matrix(0.4456 -0.8952 0.8952 0.4456 -261.81 223.8871)" style="fill:#8CC7FF;" width="3.833" height="10.525"/>
				
					<rect x="116.998" y="124.168" transform="matrix(0.9607 -0.2774 0.2774 0.9607 -30.1805 38.8685)" style="fill:#FFDAA6;" width="10.525" height="3.833"/>
				
					<rect x="97.639" y="197.564" transform="matrix(0.0122 -0.9999 0.9999 0.0122 -97.8199 299.9391)" style="fill:#8CC7FF;" width="10.525" height="3.833"/>
				
					<rect x="54.579" y="146.218" transform="matrix(0.9015 -0.4327 0.4327 0.9015 -58.2027 40.476)" style="fill:#9C5DA3;" width="10.525" height="3.833"/>
				
					<rect x="149.31" y="51.207" transform="matrix(0.0122 -0.9999 0.9999 0.0122 99.566 207.0363)" style="fill:#8CC7FF;" width="10.525" height="3.833"/>
				
					<rect x="102.966" y="276.841" transform="matrix(0.819 -0.5738 0.5738 0.819 -142.8948 111.2552)" style="fill:#9C5DA3;" width="3.833" height="10.525"/>
			</g>
		</g>
		<g>
			<g>
				<g>
					
						<line style="fill:none;stroke:#57549B;stroke-width:2;stroke-linecap:round;stroke-linejoin:round;stroke-miterlimit:10;" x1="249.355" y1="22.485" x2="249.355" y2="43.985"/>
					
						<line style="fill:none;stroke:#57549B;stroke-width:2;stroke-linecap:round;stroke-linejoin:round;stroke-miterlimit:10;" x1="234.379" y1="29.485" x2="241.534" y2="43.985"/>
					
						<line style="fill:none;stroke:#57549B;stroke-width:2;stroke-linecap:round;stroke-linejoin:round;stroke-miterlimit:10;" x1="264.331" y1="29.485" x2="257.176" y2="43.985"/>
				</g>
			</g>
			<g>
				<g>
					<g>
						<g>
							<path style="fill:#BE6553;" d="M125.77,395.773c0,0-9.079,13.941-10.424,14.422c-1.346,0.481-8.381,1.54-9.525,3.451
								c-1.47,2.455-0.694,1.259-2.137,3.471c-1.117,1.712-4.968,8.429-4.968,8.429l0.764,0.912c0,0,6.97-4.803,7.617-4.957
								c0.647-0.154,1.226,2.853,0.638,6.32c-0.588,3.467-1.266,6.363-0.615,7.758c0.651,1.395,10.548,9.66,11.668,10.533
								c1.119,0.873,2.066-1.084,1.428-2.619c-0.638-1.534-3.076-6.606-3.076-6.606s3.273-17.098,3.61-18.932
								c0.337-1.834,13.976-15.198,13.976-15.198L125.77,395.773z"/>
							<path style="fill:#F2D5CF;" d="M118.787,446.113c-1.119-0.873-11.017-9.138-11.668-10.533
								c-0.651-1.395,0.027-4.291,0.615-7.758c0.588-3.467,0.009-6.474-0.638-6.32c-0.647,0.154-7.617,4.957-7.617,4.957
								l-0.764-0.912c0,0,3.851-6.717,4.968-8.429c1.443-2.212,0.667-1.016,2.137-3.471c0.885-1.478,5.281-2.444,7.856-3.03
								c0.422,0.881,0.839,2.519,0.719,5.547c-0.227,5.751-2.481,12.942-1.025,16.379c1.456,3.437,3.769,4.345,3.769,4.345
								s2.437,5.072,3.076,6.606C120.854,445.029,119.906,446.986,118.787,446.113z"/>
						</g>
						<g>
							<path style="fill:#BE6553;" d="M126.24,340.835c0,0-16.628-0.527-17.738-1.428c-1.109-0.901-5.665-6.365-7.893-6.352
								c-2.862,0.017-1.436,0.06-4.076-0.026c-2.043-0.066-9.783,0.127-9.783,0.127l-0.383,1.126c0,0,7.723,3.466,8.19,3.939
								c0.467,0.473-1.803,2.528-5.072,3.825c-3.269,1.296-6.097,2.219-6.951,3.499c-0.855,1.28-2.785,14.029-2.95,15.439
								c-0.166,1.41,1.999,1.204,2.979-0.138s4.051-6.057,4.051-6.057s16.314-6.073,18.057-6.737
								c1.743-0.664,20.243,4.061,20.243,4.061L126.24,340.835z"/>
							<path style="fill:#F2D5CF;" d="M79.584,360.986c0.166-1.41,2.096-14.159,2.95-15.439c0.855-1.28,3.682-2.203,6.951-3.499
								c3.269-1.296,5.539-3.352,5.072-3.825c-0.467-0.473-8.19-3.939-8.19-3.939l0.383-1.126c0,0,7.74-0.193,9.783-0.127
								c2.64,0.086,1.214,0.043,4.076,0.026c1.722-0.01,4.829,3.246,6.666,5.144c-0.534,0.817-1.719,2.024-4.369,3.493
								c-5.034,2.79-12.351,4.594-14.533,7.622c-2.182,3.028-1.759,5.476-1.759,5.476s-3.071,4.715-4.051,6.057
								S79.419,362.396,79.584,360.986z"/>
						</g>
						<g>
							<path style="fill:#57549B;" d="M189.122,339.527c3.779-22.007,7.883-62.895,7.507-70.066
								c-0.5-9.524-3.631-34.982-3.631-34.982h-39.383c0,0-12.095,20.47-13.688,26.326c-1.593,5.855-0.816,16.43,3.943,27.68
								c4.759,11.25,21.175,45.75,20.592,47.25c-0.583,1.5-46.833,4-48.583,5.25s-5.75,8.5-2.5,10.5
								c1.518,0.934,16.493,3.887,32.47,6.718c-8.908,14.509-25.041,42.98-26.97,47.032c-2.5,5.25,3.75,12.25,6.25,10
								c1.934-1.74,34.677-34.74,51.285-52.029c5.068,0.726,8.622,1.133,9.543,1.029c4.422-0.5,5.922-6.75,5.422-10.5
								C191.243,352.713,190.41,347.237,189.122,339.527z"/>
							<g>
								<path style="fill:none;stroke:#434182;stroke-linecap:round;stroke-linejoin:round;stroke-miterlimit:10;" d="
									M176.414,363.206c-7.892-1.131-19.471-3.038-30.565-5.003"/>
								<path style="fill:none;stroke:#434182;stroke-linecap:round;stroke-linejoin:round;stroke-miterlimit:10;" d="
									M189.122,339.527c-2.83-16.939-9.377-49.928-14.086-65.017c0,0,4.743-1.025,7.043-2.775c2.3-1.75,10.919-14.5,10.919-14.5"
									/>
								<path style="fill:none;stroke:#434182;stroke-linecap:round;stroke-linejoin:round;stroke-miterlimit:10;" d="
									M181.955,234.478c0,0,2.379,23.398-3.599,39.077"/>
								
									<path style="fill:none;stroke:#434182;stroke-linecap:round;stroke-linejoin:round;stroke-miterlimit:10;stroke-dasharray:4,3;" d="
									M156.129,234.478c0,0-10.559,22.256-10.28,31.256s23.277,71.835,23.653,73.793c0.376,1.957,1.936,5.707,1.156,6.457
									s-4.301-3.75-5.04-3.25c-0.74,0.5,0.99,4.75,0,4.75c-0.99,0-52.282-2.899-52.282-2.899"/>
								<path style="fill:none;stroke:#434182;stroke-linecap:round;stroke-linejoin:round;stroke-miterlimit:10;" d="
									M165.619,339.527c0,0,3.734,8.707,9.747,11.957"/>
								
									<line style="fill:none;stroke:#434182;stroke-linecap:round;stroke-linejoin:round;stroke-miterlimit:10;stroke-dasharray:4,3;" x1="153.615" y1="359.555" x2="118.785" y2="410.519"/>
							</g>
						</g>
					</g>
					<g>
						<path style="fill:#E2BDB4;" d="M235.629,230.734c0,0-44.518-10.179-91.759,3.744c0,0,5.283-58.744,11.354-61.244
							c6.072-2.5,39.374-19.451,46.056-16.642C207.962,159.401,235.629,230.734,235.629,230.734z"/>
						<g>
							<path style="fill:#37241E;" d="M156.754,112.859c0,0-8.625,3.923-7.875,8.962c0.75,5.038,8.375,14.993,9.375,21.266
								c1,6.272,1.077,16.897,8.476,17.522c7.399,0.625,7.524-6.076,14.399-8.6c6.875-2.525,13.875-3.528,23.5-11.841
								c8.837-7.632,8.625-18.934,5.875-22.309s-8.125,1.042-9.625-1.208s2.375-5.417,2.5-13.667c0.093-6.166-6-12-12.875-3
								c0,0,1.625-7.375-1.875-13.625s-3.503-1.813-8.125,2.625c-5.208,5-12.708,5.75-18.625,12.75
								C156.846,107.689,156.754,112.859,156.754,112.859z"/>
							<g>
								<g>
									<path style="fill:none;stroke:#563D38;stroke-linecap:round;stroke-linejoin:round;stroke-miterlimit:10;" d="
										M201.516,97.351c0,0-0.699,11.259-5.918,15.509c-5.219,4.25,2.969,7,0,10.5c-2.969,3.5-10.264,5.276-11.117,5.276"/>
									<path style="fill:none;stroke:#563D38;stroke-linecap:round;stroke-linejoin:round;stroke-miterlimit:10;" d="
										M197.762,95.362c0,0,1.961,10.932-0.9,16.233"/>
									<path style="fill:none;stroke:#563D38;stroke-linecap:round;stroke-linejoin:round;stroke-miterlimit:10;" d="
										M172.531,112.859c0,0,0.223-6.25,4.348-10.375s4.912,0.304,8.069-1.375c3.056-1.625,5.104-5.971,4.955-11.798"/>
								</g>
							</g>
							<path style="fill:none;stroke:#37241E;stroke-linecap:round;stroke-linejoin:round;stroke-miterlimit:10;" d="
								M204.129,97.351c0,0,2.5,7.509,0.625,12.884s-0.625,4.875,2,4.25s7.25-0.452,7,7.337c-0.25,7.788-10.625,16.58-10.625,16.58"
								/>
						</g>
						<g>
							<g>
								<path style="fill:#BE6553;" d="M203.129,201.734c0,0,6.385-7.75,5.317-13.5c-1.067-5.75-6.931-15-6.931-15
									s-2.949-11.168-5.918-12.584c-2.969-1.416-10.65,0.822-10.65,0.822c0.208-0.528,0.306-0.947,0.306-1.148
									c0-0.875,0.8-12.899,0.8-12.899l-15.396,0.956c0,0,1.72,7.318-0.905,15.818c-2.75,1.41-17.375,4.16-19.625,15.41
									s5.625,26.25,5.875,36.75s-12.125,30.375-13.75,35.25s19.208,11.125,35.292,8.625c16.083-2.5,20.923-12,21.628-15.25
									s-2.828-20.5-2.312-22.75C197.379,219.984,202.879,205.234,203.129,201.734z"/>
								<path style="fill:#984233;" d="M185.672,153.265c0.194-3.012,0.382-5.839,0.382-5.839l-15.396,0.956
									c0,0,0.401,1.727,0.519,4.463c2.539,1.788,6.78,4.301,9.826,3.64C183.027,156.046,184.574,154.671,185.672,153.265z"/>
							</g>
							<g>
								<path style="fill:#FFFFFF;" d="M152.004,174.921c-0.866,1.373-1.523,2.926-1.875,4.688c-2.25,11.25,5.625,26.25,5.875,36.75
									s-12.125,30.375-13.75,35.25s19.208,11.125,35.292,8.625c16.083-2.5,20.923-12,21.628-15.25s-2.828-20.5-2.312-22.75
									c0.517-2.25,6.017-17,6.267-20.5c0,0,6.385-7.75,5.317-13.5c-1.067-5.75-6.931-15-6.931-15s-8.053,6.25-23.97,7.75
									C164.815,182.184,154.82,179.224,152.004,174.921z"/>
								<g>
									<path style="fill:none;stroke:#F2DED7;stroke-linecap:round;stroke-linejoin:round;stroke-miterlimit:10;" d="
										M192.998,197.234c0,0-6.414,7.5-14.642,9.25"/>
									<path style="fill:none;stroke:#F2DED7;stroke-linecap:round;stroke-linejoin:round;stroke-miterlimit:10;" d="
										M197.64,197.234c0,0-2.429,2.468-7.729,4.625"/>
									<path style="fill:none;stroke:#F2DED7;stroke-linecap:round;stroke-linejoin:round;stroke-miterlimit:10;" d="
										M191.379,224.234c-0.75,0.25-10.445,3-18.848,6.5"/>
								</g>
							</g>
							<path style="fill:none;stroke:#37241E;stroke-linecap:round;stroke-linejoin:round;stroke-miterlimit:10;" d="
								M169.754,164.199c0,0,6.625,6.869,12.417,5.702c5.792-1.167,2.777-8.429,2.777-8.429"/>
						</g>
						<g>
							<path style="fill:#F2D5CF;" d="M147.27,179.251c1.285-5.397,5.665-8.849,9.192-11.35c4.701-3.333,10.268-4.167,11.554-3.028
								c1.286,1.139,10.632,22.861,11.706,30.361c1.074,7.5-11.732,42.717-15.093,49.667c-3.361,6.95-14.667,23.333-19,24.5
								c-4.333,1.167-25.667-15.167-26.167-18.167s3.667-18,6.667-20.5s18.333-9.667,20-13S146.437,182.751,147.27,179.251z"/>
							<path style="fill:none;stroke:#E2BDB4;stroke-linecap:round;stroke-linejoin:round;stroke-miterlimit:10;" d="
								M164.462,164.53c0,0,12.167,28.038,12.333,32.038c0.167,4-8.667,31-12.167,39.5s-22.465,32.575-22.465,32.575"/>
							<g>
								<g>
									<path style="fill:#FFFFFF;" d="M174.723,198.391c0,0.639-0.518,1.156-1.156,1.156s-1.156-0.518-1.156-1.156
										c0-0.639,0.518-1.156,1.156-1.156S174.723,197.752,174.723,198.391z"/>
									<path style="fill:#FFFFFF;" d="M170.659,212.182c0,0.639-0.518,1.156-1.156,1.156c-0.639,0-1.156-0.518-1.156-1.156
										c0-0.639,0.518-1.156,1.156-1.156C170.141,211.025,170.659,211.543,170.659,212.182z"/>
									<path style="fill:#FFFFFF;" d="M160.637,238.234c0,0.639-0.518,1.156-1.156,1.156c-0.639,0-1.156-0.518-1.156-1.156
										s0.518-1.156,1.156-1.156C160.12,237.078,160.637,237.596,160.637,238.234z"/>
									<path style="fill:#FFFFFF;" d="M153.615,249.568c0,0.639-0.518,1.156-1.156,1.156c-0.639,0-1.156-0.518-1.156-1.156
										c0-0.638,0.518-1.156,1.156-1.156C153.098,248.412,153.615,248.929,153.615,249.568z"/>
									<path style="fill:#FFFFFF;" d="M166.775,225.172c0,0.639-0.518,1.156-1.156,1.156c-0.639,0-1.156-0.518-1.156-1.156
										s0.518-1.156,1.156-1.156C166.257,224.016,166.775,224.533,166.775,225.172z"/>
								</g>
							</g>
						</g>
						<g>
							<g>
								<path style="fill:#BE6553;" d="M237.349,78.868c0,0-4.142-2.912-4.732-7.711c-0.589-4.798-2.546-9.635-3.958-11.313
									c-1.413-1.677,2.375-1.582,4.383,2.299c2.008,3.88,3.162,3.28,4.054,0.484c0.893-2.796,1.103-13.076,3.033-13.56
									c1.93-0.484,0.357,10.364,0.299,11.914c-0.058,1.55,3.107-12.092,4.909-13.07c1.803-0.978-0.91,11.606-0.52,12.942
									c0.39,1.336,4.768-10.811,5.945-10.438c1.177,0.374-2.613,10.929-2.466,11.866c0.147,0.936,5.161-6.28,5.929-5.842
									c0.768,0.438-3.573,7.543-4.292,9.193c-0.719,1.65-2.916,11.365-4.49,12.591s-2.493,11.755-2.493,11.755l-8.385-1.647
									L237.349,78.868z"/>
								<path style="fill:none;stroke:#984233;stroke-linecap:round;stroke-linejoin:round;stroke-miterlimit:10;" d="
									M236.796,66.901c0,0,4.809,4.667,4.738,10.5"/>
								<path style="fill:none;stroke:#984233;stroke-linecap:round;stroke-linejoin:round;stroke-miterlimit:10;" d="
									M245.629,66.901c0,0-1.503,4.176-2.833,6.667"/>
							</g>
							<g>
								<path style="fill:#F2D5CF;" d="M186.2,161.143c0,0,22.031,17.091,27.563,26.591c5.532,9.5,12.365,64.643,14.532,64.571
									c2.167-0.071,13-17.904,13.333-19.904s-15.203-48.652-16.5-51.833c-2-4.907-6.333-12.333-6.333-12.333
									s17.333-32.962,19.333-39.629c2-6.667,6.256-39.603,6.25-42.103s-7.839-4.513-9.672-2.256
									c-1.833,2.256-12.244,35.026-13.411,37.61c-1.167,2.583-18.893,27.212-19.78,27.545c-0.887,0.333-6.481,0.244-8.517,1.789
									C190.962,152.734,184.647,159.917,186.2,161.143z"/>
								<g>
									<g>
										<path style="fill:none;stroke:#E2BDB4;stroke-linecap:round;stroke-linejoin:round;stroke-miterlimit:10;" d="
											M201.516,149.401c2.78,2.833,17.28,18.833,17.28,18.833"/>
										<path style="fill:none;stroke:#E2BDB4;stroke-linecap:round;stroke-linejoin:round;stroke-miterlimit:10;" d="
											M195.598,152.009c0,0,6.57,3.166,11.365,5.559"/>
										<path style="fill:none;stroke:#E2BDB4;stroke-linecap:round;stroke-linejoin:round;stroke-miterlimit:10;" d="
											M222.879,124.56c0,0,5.25-0.696,11.5-0.136"/>
										<path style="fill:none;stroke:#E2BDB4;stroke-linecap:round;stroke-linejoin:round;stroke-miterlimit:10;" d="
											M228.629,126.28c0,0,3,0.167,7,2.936"/>
										<path style="fill:none;stroke:#E2BDB4;stroke-linecap:round;stroke-linejoin:round;stroke-miterlimit:10;" d="
											M215.168,164.24c0,0,16.279-31.478,17.995-36.492c1.716-5.014,0.216-0.571,2.466-3.542
											c2.25-2.972,5.904-40.208,5.904-40.208"/>
										<path style="fill:none;stroke:#E2BDB4;stroke-linecap:round;stroke-linejoin:round;stroke-miterlimit:10;" d="
											M186.56,158.818c0,0,26.236,19.083,29.902,24.583c3.667,5.5,8.167,30.833,9.667,39.5c1.5,8.667,4.077,27.823,4.077,27.823
											"/>
									</g>
								</g>
								<g>
									
										<line style="fill:none;stroke:#FFFFFF;stroke-linecap:round;stroke-linejoin:round;stroke-miterlimit:10;" x1="211.129" y1="175.661" x2="213.462" y2="173.234"/>
									
										<line style="fill:none;stroke:#FFFFFF;stroke-linecap:round;stroke-linejoin:round;stroke-miterlimit:10;" x1="219.322" y1="185.108" x2="221.655" y2="182.682"/>
									
										<line style="fill:none;stroke:#FFFFFF;stroke-linecap:round;stroke-linejoin:round;stroke-miterlimit:10;" x1="223.036" y1="196.75" x2="225.369" y2="194.324"/>
									
										<line style="fill:none;stroke:#FFFFFF;stroke-linecap:round;stroke-linejoin:round;stroke-miterlimit:10;" x1="225.369" y1="208.911" x2="227.702" y2="206.484"/>
									
										<line style="fill:none;stroke:#FFFFFF;stroke-linecap:round;stroke-linejoin:round;stroke-miterlimit:10;" x1="227.184" y1="220.54" x2="229.517" y2="218.114"/>
								</g>
							</g>
						</g>
						<g>
							<path style="fill:#BE6553;" d="M164.504,108.734c10.371-6.1,20.875-1,25.875,8.375c4.278,8.02,11.213,24.294-4.875,32
								c-14.875,7.125-23.5-5.875-27.375-11.625S151.754,116.234,164.504,108.734z"/>
							<path style="fill:none;stroke:#984233;stroke-linecap:round;stroke-linejoin:round;stroke-miterlimit:10;" d="
								M174.962,122.568c0,0,2.5,6.167,5.167,9.333c0,0,2.469-3.487,3.5-3.266c1.161,0.25,1.083,4.516,0.083,7.432"/>
							<path style="fill:none;stroke:#984233;stroke-linecap:round;stroke-linejoin:round;stroke-miterlimit:10;" d="
								M177.546,140.234c0,0,4.75,2.5,9.25-1.833"/>
							<path style="fill:#37241E;" d="M165.871,126.639c-2.527-3.165,0.629-9.059,4.741-8.25c0.518,0.102-0.9,0.919-1.083,1.065
								c-0.884,0.628-1.556,1.633-2.057,2.573c-0.544,0.97-0.915,2.035-1.149,3.12C166.26,125.424,166.206,126.821,165.871,126.639z
								"/>
							<path style="fill:#37241E;" d="M175.246,116.564c0.642-1.881,2.809-2.77,4.641-2.817c1.09-0.016,2.236,0.326,3.126,0.96
								c0.398,0.284,1.586,1.263,1.513,1.855c-0.046,0.375-1.164-0.219-1.471-0.331c-1.029-0.319-2.087-0.509-3.168-0.485
								c-1.066-0.018-2.16,0.131-3.173,0.467C176.442,116.294,175.267,116.935,175.246,116.564z"/>
							<path style="fill:#A84758;" d="M174.253,138.292c0.833,2.866-1.383,6.029-4.95,7.065c-3.566,1.036-7.133-0.447-7.965-3.313
								c-0.833-2.866,1.384-6.029,4.95-7.065C169.854,133.943,173.421,135.426,174.253,138.292z"/>
							<path style="fill:#563D38;" d="M161.879,101.734c-5.033,5.954-5.125,11.125-5.125,11.125s-8.625,3.923-7.875,8.961
								c0.699,4.694,7.359,13.652,9.076,19.928c8.011-6.493,4.299-19.181,4.299-19.181c-2.773-10.973,11.529-29.146,11.529-29.146h0
								C169.821,95.458,165.546,97.396,161.879,101.734z"/>
							<g>
								<g>
									<path style="fill:none;stroke:#37241E;stroke-linecap:round;stroke-linejoin:round;stroke-miterlimit:10;" d="
										M161.308,137.602c-11.689-16.439-4.554-24.743-4.554-24.743"/>
									<path style="fill:none;stroke:#37241E;stroke-linecap:round;stroke-linejoin:round;stroke-miterlimit:10;" d="
										M163.046,133.201c0,0-4.726-3.099-7.822-7.97"/>
								</g>
							</g>
							<g>
								<path style="fill:#37241E;" d="M172.349,130.713c0.38,0.993,0.147,2.004-0.519,2.259c-0.666,0.255-1.514-0.344-1.894-1.336
									c-0.38-0.993-0.147-2.004,0.519-2.259C171.122,129.122,171.97,129.72,172.349,130.713z"/>
								
									<path style="fill:none;stroke:#37241E;stroke-width:0.75;stroke-linecap:round;stroke-linejoin:round;stroke-miterlimit:10;" d="
									M172.531,126.651c0,0,0.958,2.083-1.389,4"/>
							</g>
							<g>
								<path style="fill:#37241E;" d="M184.766,123.963c0.38,0.993,0.147,2.004-0.519,2.259c-0.666,0.255-1.514-0.344-1.894-1.336
									c-0.38-0.993-0.147-2.004,0.519-2.259C183.539,122.372,184.386,122.97,184.766,123.963z"/>
								
									<path style="fill:none;stroke:#37241E;stroke-width:0.75;stroke-linecap:round;stroke-linejoin:round;stroke-miterlimit:10;" d="
									M184.754,119.958c0,0,0.958,2.083-1.389,4"/>
							</g>
							<path style="fill:#A84758;" d="M195.503,132.125c-0.33-3.585-1.492-7.135-2.809-10.215c-0.802,0.121-1.618,0.369-2.409,0.761
								c-3.327,1.651-4.948,5.156-3.622,7.83c1.326,2.673,5.099,3.503,8.426,1.852C195.232,132.281,195.367,132.202,195.503,132.125
								z"/>
							<g>
								<path style="fill:#BE6553;" d="M166.73,147.426l-7.099-7.749c0,0-5.919-4.275-8.067-0.275
									C149.67,142.927,158.414,151.45,166.73,147.426z"/>
								<path style="fill:#984233;" d="M155.033,146.036c2.999,2.198,7.403,3.468,11.697,1.39l-6.648-7.257
									C160.08,140.169,153.002,140.858,155.033,146.036z"/>
							</g>
						</g>
					</g>
				</g>
				<g>
					<g>
						<path style="fill:#94C0DD;" d="M351.928,398.791c0,0,35.992,32.185,38.358,32.224c2.366,0.039,6.489-3.059,5.641-6.086
							c-0.848-3.027-27.575-35.253-27.575-35.253L351.928,398.791z"/>
						<path style="fill:#94C0DD;" d="M259.458,390.566c0,0,5.08,48.016,6.808,49.632c1.728,1.617,6.864,2.087,8.267-0.726
							c1.403-2.813,3.218-44.641,3.218-44.641L259.458,390.566z"/>
						<g>
							<path style="fill:#37241E;" d="M354.129,240.734c0,0,2,18.5,2.333,19.167c0.333,0.667,2,2.196,2.167,2.681
								c0.167,0.485,0.5,2.319,0,3.152c-0.5,0.833,2.833,5.833,2.667,8.667c-0.167,2.833-15,68.333-14.333,70
								c0.667,1.667,0.833,3.333,1,4c0.167,0.667-1.377,2.5-1.022,3.083c0.355,0.583,2.355,1.75,3.022,2.417
								c0.667,0.667-0.5,3.27-0.167,4.301c0.333,1.032,36.667,52.365,38.667,54.532c2,2.167,1.667,6.667-1.5,8.5
								c-3.167,1.833-7.167,2-10.333,0.833c-3.167-1.167-61.167-52.667-63.333-61.833c-2.167-9.167,7-61.854,7-61.854
								s-34.833,42.854-35.5,43.521c-0.667,0.667,0.667,4.167,0,4.667c-0.667,0.5-3.5,0-3.5,0.5s-2.667,77-3,79.167
								c-0.333,2.167-4.5,4.833-8.167,5.333c-3.667,0.5-8.5-3.833-8.667-5c-0.167-1.167-12-89.167-9.167-94.5
								c2.833-5.333,41.779-63.923,42.448-64.581c0.669-0.658-0.419-5.712,0-6.06c0.419-0.348,2.169-1.778,2.169-1.778l1.361-21.413
								L354.129,240.734z"/>
							<g>
								<path style="fill:none;stroke:#563D38;stroke-linecap:round;stroke-linejoin:round;stroke-miterlimit:10;" d="
									M329.379,353.734c0,0,6.75-3.5,13.75-4.5"/>
								<path style="fill:none;stroke:#563D38;stroke-linecap:round;stroke-linejoin:round;stroke-miterlimit:10;" d="
									M334.418,355.984c0,0,8.932,0.127,12.836,2.218"/>
								<path style="fill:none;stroke:#563D38;stroke-linecap:round;stroke-linejoin:round;stroke-miterlimit:10;" d="
									M264.379,335.984c0,0,10.25,0.335,17,3.543"/>
								<path style="fill:none;stroke:#563D38;stroke-linecap:round;stroke-linejoin:round;stroke-miterlimit:10;" d="
									M269.879,339.527c0,0,5.961,2.25,9.981,5.979"/>
								<path style="fill:none;stroke:#563D38;stroke-linecap:round;stroke-linejoin:round;stroke-miterlimit:10;" d="
									M302.79,267.234c0,0,1.339,7.5,4.339,9.5s15,12.25,15,12.25l-1.833,9.396"/>
								<path style="fill:none;stroke:#563D38;stroke-linecap:round;stroke-linejoin:round;stroke-miterlimit:10;" d="
									M314.412,238.234c0,0-2.691,31.385-2.961,36.5s2.961,7.761,2.961,7.761"/>
								<path style="fill:none;stroke:#563D38;stroke-linecap:round;stroke-linejoin:round;stroke-miterlimit:10;" d="
									M312.054,266.541c0,0,7.45-1.806,8.075-3.306s2.625-23.865,2.625-23.865"/>
								
									<path style="fill:none;stroke:#563D38;stroke-linecap:round;stroke-linejoin:round;stroke-miterlimit:10;stroke-dasharray:4,3;" d="
									M349.372,240.522c0,0,0.257,20.588,0.507,21.463s3.375,2.125,3.75,3.25s-2,3.25-1.5,4s2.706,7,1.54,12
									c-1.165,5-14.665,60.875-14.79,62s2.164,2.75,1.957,3.625c-0.207,0.875-2.769,3.487-2.631,3.45
									c0.138-0.037,3.674,1.55,4.299,2.425s-1.961,3.011-1.668,3.755c0.293,0.745,48.68,61.285,48.68,61.285"/>
								
									<path style="fill:none;stroke:#563D38;stroke-linecap:round;stroke-linejoin:round;stroke-miterlimit:10;stroke-dasharray:4,3;" d="
									M317.252,284.862c0,0-37.037,49.246-37.392,50.059c-0.356,0.813-0.17,2.768-0.951,3.603
									c-0.78,0.835-4.243,0.196-3.065,3.992c1.178,3.796-1.725,3.718-2.965,4.718l1.216,83.065"/>
							</g>
						</g>
						<path style="fill:#37241E;" d="M394.938,422.791c-0.538,2.95-2.566,5.908-3.577,6.87c-0.865,0.823-3.478-2.96-4-2.445
							c-0.957,0.943-3.75,3.733-4.147,5.016c-0.341,1.104,1.8,3.477,1.8,3.477l2.564,13.143c0,0-3.259,10.132-3.525,11.265
							s1.073,3.665,2.676,3.423c1.603-0.242,9.043-9.785,10.968-13.683c1.925-3.898,0.021-4.922,1.809-7.346
							c0.275-0.372,0.654-0.887,1.099-1.491l2.573,1.014l5.725-7.763l-1.386-2.623C405.206,426.625,395.48,419.817,394.938,422.791z
							"/>
						<path style="fill:#37241E;" d="M275.234,437.224c-2.379,1.826-5.868,2.658-7.263,2.692c-1.193,0.029-0.591-4.529-1.324-4.497
							c-1.342,0.057-5.285,0.25-6.441,0.935c-0.994,0.59-0.999,3.786-0.999,3.786l-6.92,11.464c0,0-9.216,5.323-10.174,5.985
							c-0.958,0.662-1.665,3.437-0.314,4.334c1.351,0.896,13.271-1.184,17.315-2.782c4.043-1.598,3.319-3.635,6.271-4.232
							c0.453-0.092,1.08-0.219,1.815-0.367l1.227,2.478l9.454-1.913l0.733-2.875C280.273,446.958,277.633,435.384,275.234,437.224z"
							/>
					</g>
					<g>
						<path style="fill:#FFA38C;" d="M254.997,81.145c0,0-4.986-0.881-7.554-4.977c-2.568-4.096-6.391-7.647-8.381-8.567
							c-1.991-0.92,1.481-2.44,4.944,0.223c3.463,2.663,4.254,1.63,3.877-1.281c-0.377-2.91-4.546-12.31-3.003-13.567
							c1.543-1.256,4.718,9.235,5.322,10.664c0.604,1.429-2.313-12.269-1.095-13.918c1.218-1.65,4.096,10.897,5.016,11.942
							c0.92,1.045-0.265-11.813,0.959-11.973c1.224-0.16,2.267,11.006,2.797,11.792c0.53,0.786,2.012-7.876,2.893-7.805
							c0.881,0.071-0.038,8.346,0.011,10.146c0.049,1.799,2.177,11.529,1.272,13.307c-0.906,1.777,2.726,11.703,2.726,11.703
							l-8.292,2.064L254.997,81.145z"/>
						<g>
							<path style="fill:#B2D8F7;" d="M330.269,156.663c0,0,17.735,0.946,25.11,5.571s10.5,10.125,7.875,29.875
								s-4.625,43.25-3.875,47.25s-2.875,6.625-2.875,6.625s-16.875,4.5-31.875,2.875s-22.875-4.25-25-5.125s-4.25-4-4.5-6.5
								s1.625-7.75,1.625-9.75s-1.932-14.821-3.375-24.546c-1.625-10.954-0.929-19.043-0.929-19.043s-28.196-36.901-30.321-44.218
								c-2.125-7.317-8.125-41.561-8.5-44.314c-0.375-2.753,0.875-4.003,0.875-4.003s-2.125-6.597-1.875-7.361s2.25-3.014,5-3.764
								s6.625-0.375,7,0s2.375,7.5,2.375,7.5s1.5-0.596,2.625,1.577s14.5,38.1,14.875,39.324c0.375,1.224,2.25,1.557,2.625,2.016
								c0.375,0.458-1,3.538-0.625,3.686c0.375,0.148,2.625-0.398,3.125,0c0.5,0.398-0.125,3.356,0.25,4.064
								c0.375,0.708,7.048,7.662,8.586,8.185c1.539,0.523,12.039,1.756,16.539,10.077H330.269z"/>
							<circle style="fill:#FFFFFF;" cx="256.129" cy="85.109" r="1"/>
							<g>
								<path style="fill:none;stroke:#94C0DD;stroke-linecap:round;stroke-linejoin:round;stroke-miterlimit:10;" d="
									M292.45,183.895c0.554-5.286,3.179-13.774,5.429-17.155c2.25-3.381,9.268-17.339,9.268-17.339"/>
								<path style="fill:none;stroke:#94C0DD;stroke-linecap:round;stroke-linejoin:round;stroke-miterlimit:10;" d="
									M285.504,138.401c0,0-7.75-1.667-17.25,0.958"/>
								<path style="fill:none;stroke:#94C0DD;stroke-linecap:round;stroke-linejoin:round;stroke-miterlimit:10;" d="
									M282.379,131.294c0,0-6.625,1.471-11.375,5.269"/>
								<path style="fill:none;stroke:#94C0DD;stroke-linecap:round;stroke-linejoin:round;stroke-miterlimit:10;" d="
									M292.966,180.628c0,0-24.587-34.838-25.462-36.303c-0.875-1.465,0.375-2.848-0.5-4.156c-0.875-1.309-2.5-1.152-3.125-3.355
									c-0.625-2.204-8.375-41.514-8.5-43.046s1.159-3.848,1.159-3.848"/>
								<path style="fill:none;stroke:#94C0DD;stroke-linecap:round;stroke-linejoin:round;stroke-miterlimit:10;" d="
									M321.257,162.497c0,0-8.267,26.405-8.198,40.738c0.07,14.333,0.876,25.333,0.556,28.333c-0.32,3-3.347,13.149,0,15.741"/>
								<path style="fill:none;stroke:#94C0DD;stroke-linecap:round;stroke-linejoin:round;stroke-miterlimit:10;" d="
									M254.504,91.359c0,0,4.125-4.125,12.5-3.625"/>
							</g>
							<path style="fill:#94C0DD;" d="M327.365,183.315c1.448-0.709,17.914-0.62,18.51,0c0.596,0.62,0.298,12.52,0,13.423
								c-0.298,0.903-8.453,3.883-9.59,4.032s-8.921-4.032-9.181-5.661C326.843,193.479,326.723,183.629,327.365,183.315z"/>
						</g>
					</g>
					<g>
						<path style="fill:#5E1C1C;" d="M321.257,171.708c0,0-3.597,10.512-12.411,21.756c-8.814,11.244-17.647,26.411-20.147,33.161
							c0,0-4.372,1.75-4.936,1.75c-0.564,0-2.375-5.833-1.803-6.667c0.572-0.833,8.377-17.354,14.392-24.177
							c6.016-6.823,17.413-16.852,21.963-26.088L321.257,171.708z"/>
						<path style="fill:#732525;" d="M321.257,171.708c0,0-2.385,11.167-18.888,19c-16.503,7.833-53.003,0-54.086-1
							c-1.083-1-6.083-13.98-5.583-14.907c0.5-0.927,12.626-3.427,13.813-3.093c1.187,0.333,16.354,10.415,29.77,11.208
							c13.417,0.792,26.674-2.041,32.379-12.041L321.257,171.708z"/>
						<g>
							<g>
								<path style="fill:#FFA38C;" d="M333.467,145.727c0,0-0.524,8.148,2.271,16.148c0,0-3.33,4.128-11.08,4.003
									s-7.139-4.753-7.139-4.753l-0.556-15.23L333.467,145.727z"/>
								<path style="fill:#D37562;" d="M333.43,147.724c-0.01-1.249,0.037-1.997,0.037-1.997l-16.503,0.168l0.2,5.476
									c1.513,1.813,3.439,3.497,5.337,3.379C325.567,154.56,330.999,149.934,333.43,147.724z"/>
							</g>
							<g>
								<g>
									<path style="fill:#9D4E3F;" d="M342.496,141.625c0,0,6.707-9.244,8.457-11.81c1.75-2.565,3.625-5.493,3-6.717
										c-0.625-1.224-3.743-4.428-3.743-4.428s3.743-4.796,1.368-10.671s-6.957-7.018-11.228-11.509
										c-4.272-4.491-7.772-13.352-7.772-13.352s-6.363,5.611-5.494,14.611c0,0-7.249-5.625-9.378-12.375
										c0,0-2.031,5.131-1.142,9.128c0,0-1.325-3.878-1.343-7.128c0,0-8.812,8.627-3.643,21c0,0-4-3.5-5.125-7.375
										c0,0-3.672,9.206,6.352,18.353C322.828,128.5,342.496,141.625,342.496,141.625z"/>
									<path style="fill:none;stroke:#BE6553;stroke-linecap:round;stroke-linejoin:round;stroke-miterlimit:10;" d="
										M311.606,92.907c0,0,0.626,11.593,9.651,17.218c0,0-7.834-2.843-11.279-8.609"/>
								</g>
								<path style="fill:#FFA38C;" d="M337.963,105.52c-10.371-6.1-20.875-1-25.875,8.375c-4.277,8.021-11.213,24.294,4.875,32
									c14.875,7.125,23.5-5.875,27.375-11.625S350.713,113.02,337.963,105.52z"/>
								<path style="fill:none;stroke:#D37562;stroke-linecap:round;stroke-linejoin:round;stroke-miterlimit:10;" d="
									M326.338,117.671c0,0-1.472,5.257-4.139,8.423c0,0-4.659-2.327-5.689-2.105c-1.161,0.25,1.078,7.182,1.078,7.182"/>
								<path style="fill:#37241E;" d="M330.118,126.498c-0.38,0.993-0.147,2.004,0.519,2.259c0.666,0.255,1.514-0.344,1.894-1.336
									c0.379-0.993,0.147-2.004-0.519-2.259C331.345,124.907,330.498,125.505,330.118,126.498z"/>
								<path style="fill:#37241E;" d="M317.701,119.748c-0.379,0.993-0.147,2.004,0.52,2.259c0.666,0.255,1.514-0.344,1.894-1.336
									c0.379-0.993,0.147-2.004-0.519-2.259C318.929,118.157,318.081,118.755,317.701,119.748z"/>
								<path style="fill:#EA8399;" d="M328.214,134.077c-0.833,2.866,1.384,6.029,4.95,7.065c3.566,1.036,7.133-0.447,7.965-3.313
									c0.833-2.866-1.384-6.029-4.95-7.065C332.613,129.728,329.047,131.211,328.214,134.077z"/>
								<g>
									<path style="fill:#37241E;" d="M316.176,133.477h10.162c0,0-0.805,3.773-4.305,4.34
										C316.252,138.754,316.176,133.477,316.176,133.477z"/>
									<path style="fill:#A84758;" d="M322.033,137.817c3.5-0.567,4.305-4.34,4.305-4.34h-3.839
										c-2.041,1.134-3.213,2.818-3.838,4.048C319.484,137.893,320.576,138.053,322.033,137.817z"/>
								</g>
								<path style="fill:#9D4E3F;" d="M316.773,114.559c0.377-4.396,7.04-5.412,8.883-1.532c0.288,0.697-0.758,0.159-1.119,0.087
									c-1.018-0.201-2.033-0.246-3.06-0.074c-1.151,0.193-2.251,0.515-3.299,1.034
									C317.906,114.203,316.832,115.028,316.773,114.559z"/>
								<path style="fill:#9D4E3F;" d="M332.208,114.121c2.043-0.855,4.362,0.356,5.539,2.049c0.654,0.953,0.919,2.027,0.924,3.17
									c0.012,0.595-0.406,2.545-1.138,2.754c-0.446,0.127-0.439-1.074-0.516-1.493c-0.243-1.06-0.664-2.158-1.337-3.025
									c-0.598-0.93-1.394-1.757-2.293-2.399C333.132,114.983,331.84,114.401,332.208,114.121z"/>
								<g>
									<path style="fill:#BE6553;" d="M350.953,129.815c1.75-2.565,3.625-5.493,3-6.717c-0.625-1.224-3.743-4.428-3.743-4.428
										s3.743-4.796,1.368-10.671s-6.957-7.018-11.228-11.509c-1.181-1.242-2.299-2.82-3.304-4.45l-0.002,0
										c0,0-3.788,13.695,4.726,22.639c0,0,2.264,7.9-1.486,11.423c-3.75,3.522,7.176,6.147,2.213,15.522
										C342.496,141.625,349.203,132.381,350.953,129.815z"/>
									<path style="fill:none;stroke:#9D4E3F;stroke-linecap:round;stroke-linejoin:round;stroke-miterlimit:10;" d="
										M343.451,99.263c0,0,8.685,9.204,6.758,19.408c0,0-1.958-12.02-14.005-19.408"/>
								</g>
								<path style="fill:#EA8399;" d="M314.841,124.291c1.352-2.661-0.236-6.181-3.547-7.864c-0.133-0.068-0.269-0.125-0.403-0.185
									c-1.418,2.919-2.866,6.492-3.575,10.213C310.381,127.577,313.613,126.709,314.841,124.291z"/>
								<g>
									<path style="fill:#FFA38C;" d="M335.738,144.211l7.099-7.749c0,0,5.919-4.275,8.067-0.275
										C352.797,139.712,344.053,148.235,335.738,144.211z"/>
									<path style="fill:#D37562;" d="M347.435,142.821c-2.999,2.198-7.403,3.468-11.697,1.39l6.648-7.257
										C342.387,136.954,349.466,137.643,347.435,142.821z"/>
								</g>
							</g>
							<path style="fill:#933A3A;" d="M317.866,163.38c-0.457,1.047-1.472,8.636-0.57,9.136s5.004,1.167,5.536,0.833
								c0.533-0.333,3.064-6.406,2.715-8.411C325.199,162.933,318.449,162.042,317.866,163.38z"/>
							<path style="fill:#94C0DD;" d="M333.72,152.618c0,0-2.996,4.357-12.463,7.995c0,0-1.966-1.226-3.97-5.857
								c0,0-0.217-2.023-1.111-0.827c-0.893,1.196-2.768,5.862-2.768,5.862s-1.353,11.584-1.114,12.584l8.964-9.878l6.782,13.378
								c0,0,6.153-5.375,7.698-8.5c1.545-3.125,2.045-5.774,1.67-6.762C337.033,159.625,333.72,152.618,333.72,152.618z"/>
						</g>
					</g>
				</g>
				<g>
					<g>
						<g>
							<g>
								<g>
									<path style="fill:#ECB57C;" d="M230.081,273.215c-21.894,2.201-30.575-10.43-32.106-17.446
										c-0.807-3.698-0.003-6.742,1.956-7.4c7.906-2.656,18.002,7.232,18.104,7.332l2.805-2.822
										c-0.483-0.481-11.943-11.725-22.177-8.281c-4.011,1.349-5.85,6.179-4.575,12.019c2.495,11.438,14.943,22.714,36.402,20.556
										c0.092-0.009,0.188-0.02,0.281-0.029l-0.418-3.957C230.26,273.197,230.172,273.206,230.081,273.215z"/>
									<path style="fill:#ECB57C;" d="M282.506,236.171c-10.703-1.338-19.706,11.962-20.084,12.529l3.31,2.207
										c0.079-0.118,7.993-11.821,16.282-10.788c2.05,0.256,3.444,3.078,3.389,6.863c-0.103,7.18-6.095,21.285-27.991,23.486
										c-0.09,0.009-0.181,0.018-0.272,0.027l0.379,3.961c0.094-0.009,0.187-0.018,0.28-0.027
										c21.455-2.157,31.413-15.684,31.582-27.389C289.469,241.062,286.706,236.694,282.506,236.171z"/>
								</g>
							</g>
							<path style="fill:#FFDAA6;" d="M240.086,235.427l-27.363,2.75c0,0,4.821,26.277,7.537,33.669
								c2.716,7.392,8.756,11.117,14.101,12.912c5.346,1.795,7.16,4.925,8.871,10.345c1.711,5.42,2.324,9.857,1.879,10.402
								c-0.445,0.545-9.611,3.965-10.133,4.517c-0.521,0.552-0.615,3.061,0.332,3.299c0.947,0.238,12.48-1.254,12.48-1.254
								s11.599-0.833,12.48-1.254c0.88-0.422,0.289-2.862-0.332-3.299c-0.621-0.438-10.284-1.965-10.829-2.411
								c-0.545-0.445-0.827-4.916-0.229-10.568c0.598-5.652,1.753-9.08,6.635-11.904c4.882-2.823,10.059-7.676,11.25-15.46
								c1.191-7.784,0.686-34.495,0.686-34.495L240.086,235.427z"/>
							<path style="fill:#FFE5C5;" d="M267.45,232.677c0.257,2.561-11.785,5.869-26.897,7.388
								c-15.112,1.519-27.572,0.674-27.829-1.887c-0.258-2.561,11.785-5.869,26.897-7.388
								C254.733,229.271,267.192,230.116,267.45,232.677z"/>
							<path style="fill:#ECB57C;" d="M264.315,232.992c0.179,1.782-10.523,4.317-23.905,5.662s-24.374,0.991-24.553-0.791
								c-0.179-1.782,10.523-4.317,23.905-5.662C253.143,230.856,264.136,231.21,264.315,232.992z"/>
						</g>
						<path style="fill:#ECB57C;" d="M221.129,260.804c-1.165,2.098,2.833,15.597,11.667,19.597c8.833,4,24.5,0.642,28.5-6.846
							s3.5-29.732,2-31.526C261.796,240.234,223.798,255.998,221.129,260.804z"/>
						<path style="fill:#FFFFFF;" d="M219.322,243.943c-2.027,1.292,2.454,26.256,4.88,27.857c2.426,1.601,3.71-1.566,2.333-7.899
							c-1.377-6.333-2.093-14.351-2.333-16.592C223.962,245.068,221.348,242.652,219.322,243.943z"/>
					</g>
					<g>
						<path style="fill:#BE6553;" d="M177.576,248.331c0,0,3.936,3.106,5.471,2.583c1.535-0.523,3.179-7.042,4.75-7.782
							c1.571-0.74,6.266-0.848,6.861-1.083c0.596-0.235,4.965,1.607,7.042,1.842s1.493,2.015,0.289,2.275
							c-1.205,0.26-2.564,0.686-3.936,0.234c0,0,7.28,1.75,7.531,2.916c0.251,1.166-1.212,1.256-1.681,2.068
							c-0.469,0.812,1.301,1.887,0.967,2.722c-0.335,0.835-2.032,1.665-2.213,2.08c-0.181,0.415,0.989,2.067,0.442,2.755
							c-0.547,0.688-1.616,0.946-1.689,1.379c-0.072,0.433,0.903,1.932,0.072,2.239c-0.831,0.307-15.63-2.941-18.062-3.458
							c-2.431-0.517-11.007-4.508-11.007-4.508L177.576,248.331z"/>
						<path style="fill:#F2D5CF;" d="M179.722,247.234c0.484,0.614-3.161,10.825-5.293,11.663
							c-2.133,0.837-36.633-21.163-38.299-28.163s7.333-48.667,11.333-53.333c4-4.667,13.667-3.5,14.667,6.333
							s-6.167,38.833-5.667,40.5S175.648,242.068,179.722,247.234z"/>
						<path style="fill:none;stroke:#E2BDB4;stroke-linecap:round;stroke-linejoin:round;stroke-miterlimit:10;" d="
							M149.681,175.661c0,0-10.433,44.588-9.719,52.74c0.715,8.152,35.403,28.833,35.403,28.833"/>
						<path style="fill:none;stroke:#E2BDB4;stroke-linecap:round;stroke-linejoin:round;stroke-miterlimit:10;" d="
							M160.807,251.556c-10.612-6.838-23.668-16.581-24.678-20.821c-0.272-1.143-0.26-3.209-0.032-5.887"/>
						<path style="fill:none;stroke:#E2BDB4;stroke-linecap:round;stroke-linejoin:round;stroke-miterlimit:10;" d="
							M147.462,177.401c4-4.667,13.667-3.5,14.667,6.333s-6.167,38.833-5.667,40.5c0.275,0.916,6.042,6.211,11.858,11.653"/>
					</g>
					<g>
						<path style="fill:#FFA38C;" d="M307.895,240.78c0,0-3.936,3.106-5.471,2.583c-1.535-0.523-3.179-7.042-4.75-7.782
							c-1.571-0.74-6.266-0.848-6.861-1.083c-0.596-0.235-4.965,1.608-7.042,1.843c-2.076,0.235-1.493,2.015-0.289,2.275
							c1.205,0.26,2.564,0.686,3.936,0.234c0,0-7.28,1.75-7.531,2.916c-0.251,1.166,1.212,1.256,1.681,2.068
							c0.47,0.813-1.301,1.887-0.966,2.722c0.335,0.835,2.032,1.665,2.213,2.081c0.181,0.415-0.989,2.067-0.442,2.755
							c0.547,0.688,1.616,0.946,1.689,1.379c0.072,0.433-0.902,1.932-0.072,2.239c0.831,0.307,15.63-2.941,18.062-3.458
							c2.431-0.517,11.007-4.508,11.007-4.508L307.895,240.78z"/>
						<g>
							<path style="fill:#B2D8F7;" d="M302.796,241.651c-0.229-0.801,6.656-4.577,6.656-4.577s-0.561-2.679,0.428-3.84
								c0.989-1.16,22.583-17.917,23.833-18.833c1.25-0.917,2.583-1.75,3.333-2s-0.5-3,0-3.417s2-0.333,2.417-0.583
								c0.417-0.25-1.083-2.833-0.667-3.5c0.417-0.667,2.25-2.333,2.333-2.833c0.083-0.5,1.417-26.667,4.583-30.833
								c3.167-4.167,11.5-10.25,17.75-1.833c6.25,8.417-0.667,40.5-1.75,45.25c-1.083,4.75-5.75,14.5-11.667,17.25
								c-5.917,2.75-29.958,16.781-31.042,17.198c-1.083,0.417-2.75-0.438-2.75-0.438s-7.625,3.49-8.292,3.324
								C307.296,251.818,303.129,242.818,302.796,241.651z"/>
							<path style="fill:none;stroke:#94C0DD;stroke-linecap:round;stroke-linejoin:round;stroke-miterlimit:10;" d="
								M303.469,243.323c-0.353-0.809-0.601-1.421-0.673-1.671c-0.229-0.801,6.656-4.577,6.656-4.577s-0.561-2.679,0.428-3.84
								c0.989-1.16,22.583-17.917,23.833-18.833c1.25-0.917,2.583-1.75,3.333-2s-0.5-3,0-3.417s2-0.333,2.417-0.583
								c0.417-0.25-1.083-2.833-0.667-3.5c0.417-0.667,2.25-2.333,2.333-2.833c0.083-0.5,1.417-26.667,4.583-30.833
								c3.167-4.167,11.5-10.25,17.75-1.833"/>
							<path style="fill:none;stroke:#94C0DD;stroke-linecap:round;stroke-linejoin:round;stroke-miterlimit:10;" d="
								M360.285,218.914c-2.042,4.884-5.787,10.918-10.24,12.988c-5.177,2.406-24.232,13.45-29.64,16.452"/>
						</g>
						<g>
							<path style="fill:none;stroke:#94C0DD;stroke-linecap:round;stroke-linejoin:round;stroke-miterlimit:10;" d="
								M309.451,237.074c0,0,2.553,6.513,6.803,11.587"/>
							<path style="fill:none;stroke:#94C0DD;stroke-linecap:round;stroke-linejoin:round;stroke-miterlimit:10;" d="
								M339.004,213.984c0,0,9.817,1.954,13.125,7.625"/>
							<path style="fill:none;stroke:#94C0DD;stroke-linecap:round;stroke-linejoin:round;stroke-miterlimit:10;" d="
								M343.129,207.698c0,0,5.625,4.662,8.25,10.099"/>
							<path style="fill:none;stroke:#94C0DD;stroke-linecap:round;stroke-linejoin:round;stroke-miterlimit:10;" d="
								M363.109,168.951c0.353,0.45,2.335,19.556-1.01,32.42c-3.345,12.864-4.345,18.725-5.22,19.169s-2.25-0.194-2.75,0
								s0.5,2.819,0,3.694s-2.125,0.875-2.75,1.25s-32.625,20.125-33.75,20.75s-3.217,0-3.217,0"/>
						</g>
						<circle style="fill:#FFFFFF;" cx="310.451" cy="247.512" r="1"/>
					</g>
				</g>
			</g>
		</g>
	</g>
</g>
</svg>
